<svg width="32" height="32" viewBox="0 0 32 32" fill="none" xmlns="http://www.w3.org/2000/svg">
<path d="M17.3222 1.43736C17.5238 1.87547 17.7551 2.41253 17.7551 3.30797C17.7551 4.20341 17.5238 4.74047 17.3222 5.17858L17.3077 5.2101C17.1362 5.58242 17.0266 5.82055 17.0266 6.26389H15.5266C15.5266 5.48863 15.7535 4.9975 15.9347 4.60539L15.9595 4.55163C16.1222 4.19798 16.2551 3.89049 16.2551 3.30797C16.2551 2.72545 16.1222 2.41796 15.9595 2.06431L15.9347 2.01055C15.7535 1.61844 15.5266 1.12732 15.5266 0.352051H17.0266C17.0266 0.79539 17.1362 1.03352 17.3077 1.40585L17.3222 1.43736Z" fill="#E0A714"/>
<path d="M21.3977 5.2982C21.3977 4.40277 21.1663 3.86571 20.9648 3.42759L20.9503 3.39608C20.7788 3.02376 20.6691 2.78562 20.6691 2.34229H19.1691C19.1691 3.11755 19.3961 3.60867 19.5773 4.00078L19.6021 4.05454C19.7648 4.40819 19.8977 4.71568 19.8977 5.2982C19.8977 5.88073 19.7648 6.18822 19.6021 6.54187L19.5773 6.59563C19.3961 6.98774 19.1691 7.47886 19.1691 8.25412H20.6691C20.6691 7.81078 20.7788 7.57265 20.9503 7.20033L20.9648 7.16881C21.1663 6.7307 21.3977 6.19364 21.3977 5.2982Z" fill="#E0A714"/>
<path fill-rule="evenodd" clip-rule="evenodd" d="M20.2162 11.5807H19.2123V11.1198C19.2123 9.60101 17.9811 8.36979 16.4623 8.36979H16.091C14.5722 8.36979 13.341 9.60101 13.341 11.1198V11.5807H12.3372C10.3312 11.5807 8.66202 13.0228 8.3097 14.9268L7.33325 14.9272C5.81447 14.9272 4.58325 16.1584 4.58325 17.6772V19.1641C4.58325 20.6828 5.81447 21.9141 7.33325 21.9141H8.24092V22.8089C8.24092 24.3277 9.47214 25.5589 10.9909 25.5589H21.5619C23.0807 25.5589 24.3119 24.3277 24.3119 22.8089V21.9146H25.2201C26.7389 21.9146 27.9701 20.6834 27.9701 19.1646V17.6777C27.9701 16.159 26.7389 14.9277 25.2201 14.9277H24.3119L24.2437 14.9268C23.8914 13.0228 22.2222 11.5807 20.2162 11.5807ZM14.841 11.543H17.7123V11.1198C17.7123 10.4294 17.1527 9.86979 16.4623 9.86979H16.091C15.4007 9.86979 14.841 10.4294 14.841 11.1198V11.543ZM9.74116 16.4268H22.8119V22.8089C22.8119 23.4993 22.2523 24.0589 21.5619 24.0589H10.9909C10.3006 24.0589 9.74092 23.4993 9.74092 22.8089L9.74116 16.4268ZM8.24092 16.4272H7.33325C6.6429 16.4272 6.08325 16.9868 6.08325 17.6772L6.08325 19.1641C6.08325 19.8544 6.6429 20.4141 7.33325 20.4141H8.24092V16.4272ZM22.7022 14.9268L9.85117 14.9268C10.173 13.8587 11.1642 13.0807 12.3372 13.0807L20.2162 13.0807C21.3892 13.0807 22.3804 13.8587 22.7022 14.9268ZM24.3122 20.4146V16.4277H25.2201C25.9105 16.4277 26.4701 16.9874 26.4701 17.6777V19.1646C26.4701 19.855 25.9105 20.4146 25.2201 20.4146H24.3122Z" fill="#E0A714"/>
<path d="M14.1123 5.2982C14.1123 4.40277 13.8809 3.86571 13.6794 3.42759L13.6649 3.39608C13.4934 3.02376 13.3837 2.78562 13.3837 2.34229H11.8837C11.8837 3.11755 12.1107 3.60867 12.2919 4.00078L12.3167 4.05454C12.4794 4.40819 12.6123 4.71568 12.6123 5.2982C12.6123 5.88073 12.4794 6.18822 12.3167 6.54187L12.2919 6.59563C12.1107 6.98774 11.8837 7.47886 11.8837 8.25412H13.3837C13.3837 7.81078 13.4934 7.57265 13.6649 7.20033L13.6794 7.16881C13.8809 6.7307 14.1123 6.19364 14.1123 5.2982Z" fill="#E0A714"/>
<path d="M26.4763 29.5195H6.07686V28.0195H26.4763V29.5195Z" fill="#E0A714"/>
</svg>
