<svg width="32" height="32" viewBox="0 0 32 32" fill="none" xmlns="http://www.w3.org/2000/svg">
<path d="M8.99121 15.6768H23.5622V22.809C23.5622 23.9136 22.6668 24.809 21.5622 24.809H10.9912C9.88664 24.809 8.99121 23.9136 8.99121 22.809V15.6768Z" stroke="white" stroke-width="1.5"/>
<path d="M23.5625 15.6768L8.99148 15.6768V15.6768C8.99148 13.8289 10.4895 12.3308 12.3375 12.3308L20.2165 12.3308C22.0644 12.3308 23.5625 13.8289 23.5625 15.6768V15.6768Z" stroke="white" stroke-width="1.5"/>
<path d="M8.99121 21.1638L7.3333 21.1638C6.22873 21.1638 5.3333 20.2684 5.3333 19.1638L5.3333 17.677C5.3333 16.5724 6.22873 15.677 7.3333 15.677L8.99121 15.677L8.99121 21.1638Z" stroke="white" stroke-width="1.5"/>
<path d="M14.0913 12.2931L14.0913 11.1199C14.0913 10.0153 14.9867 9.11988 16.0913 9.11988L16.4626 9.11988C17.5672 9.11988 18.4626 10.0153 18.4626 11.1199L18.4626 12.2931L14.0913 12.2931Z" stroke="white" stroke-width="1.5"/>
<path d="M19.9194 8.25422C19.9194 6.98739 20.648 6.77626 20.648 5.2983C20.648 3.82034 19.9194 3.6092 19.9194 2.34238" stroke="white" stroke-width="1.5"/>
<path d="M16.2769 6.26404C16.2769 4.99722 17.0054 4.78608 17.0054 3.30812C17.0054 1.83016 16.2769 1.61903 16.2769 0.352203" stroke="white" stroke-width="1.5"/>
<path d="M12.6338 8.25422C12.6338 6.98739 13.3623 6.77626 13.3623 5.2983C13.3623 3.82034 12.6338 3.6092 12.6338 2.34238" stroke="white" stroke-width="1.5"/>
<line x1="6.07715" y1="28.7696" x2="26.4766" y2="28.7696" stroke="white" stroke-width="1.5"/>
<path d="M23.5625 15.6775H25.2204C26.325 15.6775 27.2204 16.5729 27.2204 17.6775L27.2204 19.1644C27.2204 20.2689 26.325 21.1644 25.2204 21.1644H23.5625L23.5625 15.6775Z" stroke="white" stroke-width="1.5"/>
</svg>
