<svg width="72" height="60" viewBox="0 0 72 60" fill="none" xmlns="http://www.w3.org/2000/svg">
<path d="M70.5702 39.7831C67.1094 36.8214 63.8225 35.4755 60.8047 35.7895C59.8648 35.8863 59.0635 36.1327 58.3469 36.4494C57.9389 34.1369 55.8134 32.3123 53.1327 31.9814V26.5433C54.2022 26.3437 55.9739 25.821 57.3032 24.4562C59.284 22.4223 59.4395 19.374 59.4451 19.2455C59.4558 18.9992 59.3628 18.7598 59.188 18.5858C59.0141 18.4119 58.785 18.3288 58.5279 18.3305C58.4016 18.3365 55.4129 18.4972 53.424 20.5396C52.9293 21.0475 52.5485 21.6185 52.2554 22.1916C51.9623 21.6185 51.5814 21.0475 51.0868 20.5396C49.0974 18.4972 46.1087 18.3365 45.9824 18.3305C45.7339 18.3271 45.4962 18.4119 45.3223 18.5858C45.1475 18.7598 45.0545 18.9992 45.0652 19.2455C45.0708 19.374 45.2263 22.4223 47.2075 24.4562C48.5366 25.8211 50.3084 26.3438 51.3781 26.5433V31.9826C48.7787 32.3059 46.6975 34.0267 46.1997 36.2355C45.6422 35.9958 45.0061 35.8272 44.2501 35.786C43.0066 35.7158 42.0065 36.0286 41.1379 36.4841C40.7451 34.1552 38.6115 32.3139 35.9171 31.9814V26.5434C36.9865 26.3438 38.7584 25.8212 40.0876 24.4562C42.0688 22.4223 42.2243 19.374 42.2299 19.2455C42.2406 18.9992 42.1476 18.7598 41.9729 18.5858C41.7989 18.4119 41.5698 18.3288 41.3128 18.3305C41.1864 18.3365 38.1977 18.4972 36.2083 20.5396C35.7137 21.0475 35.333 21.6186 35.04 22.1917C34.7469 21.6186 34.3662 21.0475 33.8716 20.5396C31.8823 18.4972 28.8936 18.3365 28.7672 18.3305C28.5187 18.3271 28.281 18.4119 28.1071 18.5858C27.9323 18.7598 27.8394 18.9992 27.8501 19.2455C27.8556 19.374 28.0111 22.4223 29.9919 24.4562C31.3212 25.821 33.0929 26.3437 34.1625 26.5433V31.9826C31.4781 32.3165 29.3512 34.1424 28.9452 36.4551C28.1365 36.0593 27.1981 35.7847 26.0424 35.7847C26.0239 35.7847 26.0051 35.7847 25.9862 35.7847C25.1874 35.7909 24.4931 35.9404 23.8649 36.1672C23.3406 33.9884 21.2736 32.2988 18.7019 31.9814V26.5433C19.7715 26.3437 21.5431 25.821 22.8725 24.4562C24.8536 22.4223 25.0091 19.374 25.0147 19.2455C25.0254 18.9992 24.9325 18.7598 24.7577 18.5858C24.5838 18.4119 24.355 18.3288 24.0976 18.3305C23.9712 18.3365 20.9821 18.4972 18.9932 20.5396C18.4985 21.0475 18.1177 21.6185 17.8246 22.1916C17.5315 21.6185 17.1507 21.0475 16.656 20.5396C14.6671 18.4972 11.678 18.3365 11.5516 18.3305C11.2959 18.3271 11.0654 18.4119 10.8915 18.5858C10.7167 18.7598 10.6237 18.9992 10.6345 19.2455C10.64 19.374 10.7955 22.4223 12.7767 24.4562C14.106 25.821 15.8777 26.3437 16.9473 26.5433V31.9826C14.2479 32.3184 12.1119 34.1629 11.7232 36.494C11.0562 36.1399 10.302 35.8732 9.38106 35.7886C6.77145 35.5466 3.97979 36.9088 1.09003 39.8328C0.749053 40.1776 0.752481 40.7328 1.09689 41.0734C1.44129 41.4143 1.99731 41.4109 2.33744 41.0665C4.84123 38.5344 7.16298 37.353 9.22042 37.5355C10.6075 37.6631 11.5126 38.3751 12.5604 39.1993C13.6459 40.0526 14.8757 41.0198 16.7515 41.3162C17.0402 41.3616 17.317 41.3831 17.5821 41.3831C19.4442 41.3831 20.7576 40.3404 21.9335 39.407C22.4349 39.0088 22.9272 38.6241 23.4538 38.305C23.4641 38.3007 23.4719 38.2931 23.482 38.2884C24.2088 37.8526 25.0044 37.547 26 37.5393C27.7661 37.5329 28.7968 38.3262 30.0112 39.2528C31.2971 40.2338 32.7313 41.3638 35.1049 41.3269C37.4665 41.309 38.9572 40.1734 40.2727 39.171C41.4845 38.2474 42.5156 37.4524 44.155 37.5381C45.626 37.6182 46.4549 38.3567 47.4148 39.2117C48.4673 40.1494 49.6603 41.2126 51.7426 41.3257C53.9423 41.4379 55.3953 40.418 56.7986 39.425C58.0387 38.5469 59.2103 37.7175 60.9846 37.5346C63.5081 37.2729 66.3482 38.48 69.429 41.1162C69.7974 41.431 70.3508 41.3882 70.6661 41.0202C70.981 40.6518 70.9381 40.098 70.5702 39.7831ZM20.25 21.7639C21.1054 20.8853 22.2586 20.4625 23.0943 20.2612C22.8999 21.1282 22.4861 22.3379 21.6156 23.2319C20.7602 24.1101 19.607 24.5329 18.7713 24.7346C18.9658 23.8672 19.3796 22.6579 20.25 21.7639ZM12.5548 20.2612C13.3906 20.4625 14.5437 20.8857 15.3992 21.7639C16.2709 22.6592 16.6847 23.871 16.8788 24.7385C16.046 24.5393 14.8963 24.1173 14.0335 23.2319C13.1627 22.3379 12.7489 21.1278 12.5548 20.2612ZM20.8424 38.0328C19.5783 39.0365 18.5794 39.829 17.0257 39.5831C15.6009 39.3582 14.6508 38.6111 13.645 37.8199C13.5664 37.758 13.4865 37.6963 13.4073 37.6343V37.2558C13.4073 35.2818 15.391 33.6763 17.8297 33.6763C20.1606 33.6763 22.0553 35.1558 22.2104 37.0164C21.7219 37.341 21.2707 37.6927 20.8424 38.0328ZM37.4652 21.7639C38.3206 20.8853 39.4742 20.4625 40.3095 20.2612C40.115 21.1282 39.7012 22.3379 38.8308 23.2319C37.9754 24.1101 36.8226 24.5329 35.9869 24.7346C36.1814 23.8672 36.5947 22.6579 37.4652 21.7639ZM29.7696 20.2573C30.6023 20.4565 31.7521 20.8785 32.6148 21.7639C33.4865 22.6592 33.8999 23.871 34.0939 24.7385C33.2612 24.5393 32.1115 24.1173 31.2487 23.2319C30.377 22.3366 29.9632 21.1243 29.7696 20.2573ZM35.0912 39.5724C33.3738 39.5574 32.2914 38.785 31.0752 37.8576C30.9272 37.7447 30.7762 37.63 30.6225 37.5155V37.2558C30.6225 35.2818 32.6062 33.6763 35.0449 33.6763C37.4767 33.6763 39.4554 35.2818 39.4554 37.2558V37.5895C39.3733 37.6515 39.2896 37.714 39.209 37.7754C38.0053 38.6925 36.8685 39.5587 35.0912 39.5724ZM54.6808 21.7639C55.5362 20.8853 56.6894 20.4625 57.5247 20.2612C57.3306 21.1282 56.9168 22.3379 56.0464 23.2319C55.191 24.1101 54.0378 24.5329 53.2021 24.7346C53.3965 23.8672 53.8103 22.6579 54.6808 21.7639ZM46.9848 20.2573C47.8175 20.4565 48.9672 20.8785 49.83 21.7639C50.7004 22.6579 51.1142 23.8676 51.3087 24.7346C50.4725 24.5333 49.3198 24.1101 48.4643 23.2319C47.5922 22.3366 47.1788 21.1243 46.9848 20.2573ZM51.8377 39.5736C50.3688 39.494 49.5408 38.7559 48.5817 37.9017C48.3445 37.6903 48.0981 37.4733 47.8381 37.2615V37.2558C47.8381 35.2818 49.8218 33.6763 52.2605 33.6763C54.6923 33.6763 56.6705 35.2818 56.6705 37.2558V37.3821C56.3639 37.5853 56.0688 37.7918 55.7847 37.993C54.521 38.8878 53.4308 39.652 51.8377 39.5736Z" fill="white"/>
</svg>
