<svg width="61" height="61" viewBox="0 0 61 61" fill="none" xmlns="http://www.w3.org/2000/svg">
<rect x="0.878906" y="0.773926" width="58.5" height="58.5" rx="29.25" fill="#2F2020"/>
<path d="M31.1289 18.0239V19.2134C30.9839 19.2659 30.843 19.33 30.709 19.4028C30.441 19.5484 30.198 19.7325 29.9863 19.9478C29.7746 20.163 29.5943 20.4086 29.4551 20.6782C29.2463 21.0827 29.1289 21.5402 29.1289 22.0239C29.1289 22.2289 29.151 22.4294 29.1914 22.6235C29.2722 23.0118 29.4295 23.3743 29.6465 23.6938C29.755 23.8536 29.8774 24.0029 30.0137 24.1392C30.1499 24.2754 30.2992 24.3978 30.459 24.5063C30.9383 24.8319 31.5139 25.0239 32.1289 25.0239C32.2714 25.0239 32.4049 25.0509 32.5254 25.1001C32.6459 25.1493 32.7524 25.2217 32.8418 25.311C32.9312 25.4004 33.0035 25.507 33.0527 25.6274C33.102 25.7479 33.1289 25.8814 33.1289 26.0239C33.1289 26.4514 32.8868 26.8001 32.5254 26.9478C32.4049 26.997 32.2714 27.0239 32.1289 27.0239C31.9864 27.0239 31.8529 26.997 31.7324 26.9478C31.612 26.8985 31.5054 26.8262 31.416 26.7368C31.3266 26.6474 31.2543 26.5409 31.2051 26.4204C31.1559 26.2999 31.1289 26.1664 31.1289 26.0239H29.1289C29.1289 26.1852 29.1427 26.3442 29.168 26.4985C29.1932 26.6529 29.2289 26.8022 29.2773 26.9478C29.4227 27.3844 29.6687 27.7772 29.9863 28.1001C30.0922 28.2077 30.2052 28.3078 30.3262 28.3989C30.4471 28.4901 30.575 28.5722 30.709 28.645C30.843 28.7178 30.9839 28.782 31.1289 28.8345V30.0239H33.1289V28.8345C34.2889 28.4145 35.1289 27.3139 35.1289 26.0239C35.1289 24.5889 34.0875 23.3692 32.7285 23.0864C32.5344 23.046 32.3339 23.0239 32.1289 23.0239C31.9864 23.0239 31.8529 22.997 31.7324 22.9478C31.612 22.8985 31.5054 22.8262 31.416 22.7368C31.3266 22.6474 31.2543 22.5409 31.2051 22.4204C31.1559 22.2999 31.1289 22.1664 31.1289 22.0239C31.1289 21.8814 31.1559 21.7479 31.2051 21.6274C31.2543 21.507 31.3266 21.4004 31.416 21.311C31.5948 21.1323 31.8439 21.0239 32.1289 21.0239C32.6989 21.0239 33.1289 21.4539 33.1289 22.0239H35.1289C35.1289 21.8627 35.1151 21.7037 35.0898 21.5493C35.0646 21.395 35.0289 21.2456 34.9805 21.1001C34.6898 20.2268 33.9989 19.5284 33.1289 19.2134V18.0239H31.1289ZM24.6445 32.0239C23.6135 32.0279 22.8281 32.2896 22.8281 32.2896L22.8086 32.2974L17.1367 34.4731L19.1211 40.0435L24.0508 38.1528L31.1875 42.0825L43.5117 36.9771L42.7461 35.1333L31.3086 39.8677L24.207 35.9575L20.3164 37.4458L19.6758 35.6411L23.4727 34.1841C23.4817 34.1801 23.9485 34.0239 24.6445 34.0239C25.3475 34.0239 26.1672 34.18 26.8672 34.813L26.8809 34.8208L26.8848 34.8247C27.9158 35.7197 28.6934 36.3451 29.7754 36.6841C30.8574 37.0241 32.0848 37.0632 34.1348 37.0552L34.125 35.0552C32.113 35.0632 31.062 34.9919 30.375 34.7739C29.687 34.5629 29.199 34.1837 28.207 33.3247L28.1953 33.3169C27.0383 32.2779 25.6635 32.0199 24.6445 32.0239Z" fill="#E0A714"/>
<rect x="0.878906" y="0.773926" width="58.5" height="58.5" rx="29.25" stroke="#E0A714" stroke-width="1.5"/>
</svg>
