<svg width="72" height="61" viewBox="0 0 72 61" fill="none" xmlns="http://www.w3.org/2000/svg">
<path fill-rule="evenodd" clip-rule="evenodd" d="M27.7618 14.471C25.8927 14.0218 23.7805 15.6013 23.9547 17.5158C23.984 17.8386 24.0138 18.1738 24.0436 18.5197C23.877 18.5378 23.7082 18.5548 23.5373 18.5704C22.6975 18.6473 21.8075 18.693 20.8784 18.693C17.6144 18.693 15.0813 18.1287 13.4827 17.6314C12.6371 17.3684 11.6761 18.0718 11.7636 18.953C12.0235 21.5712 12.4215 26.21 12.4215 30.0622C12.4215 34.2018 11.9619 39.5304 11.708 42.1585C11.633 42.9344 12.3608 43.5603 13.122 43.3927C14.9942 42.9807 18.2454 42.3798 21.2828 42.3798C21.9565 42.3798 22.6405 42.4093 23.3174 42.4599C23.5476 42.477 23.777 42.4967 24.005 42.5183C23.9494 43.1814 23.8946 43.8039 23.8427 44.3734C23.6893 46.0586 25.2707 47.4242 26.9308 47.0964C29.3999 46.6087 32.8566 46.0728 36.1225 46.0728C39.2722 46.0728 42.5939 46.5712 45.0364 47.0441C46.7647 47.3787 48.4008 45.878 48.1724 44.1325C48.1065 43.6288 48.0384 43.0841 47.9702 42.5044C48.8214 42.4272 49.6909 42.3798 50.5435 42.3798C53.5167 42.3798 56.6887 42.9556 58.5733 43.3664C59.3656 43.5391 60.1143 42.8514 59.9988 42.0488C59.6523 39.6413 59.0939 35.0437 59.0939 30.4209C59.0939 25.9365 59.6194 21.3948 59.9671 18.8804C60.0867 18.0157 59.1965 17.29 58.3577 17.5317C56.5587 18.0498 53.6238 18.693 50.1391 18.693C49.3714 18.693 48.6441 18.6618 47.9599 18.6076C48.0098 18.173 48.0597 17.7569 48.1088 17.362C48.3426 15.4814 46.3894 13.8709 44.5455 14.3082C42.246 14.8536 39.1413 15.3665 35.5983 15.3665C32.4109 15.3665 29.7611 14.9514 27.7618 14.471ZM35.5983 16.9665C32.2715 16.9665 29.4959 16.5332 27.388 16.0267C26.9987 15.9331 26.4941 16.042 26.077 16.3679C25.6645 16.6901 25.5209 17.0716 25.5481 17.3709C25.8655 20.861 26.2352 25.8347 26.2352 30.1049C26.2352 34.886 25.7714 40.8352 25.4361 44.5185C25.3841 45.0902 25.9588 45.6574 26.6208 45.5267C29.1322 45.0307 32.7054 44.4728 36.1225 44.4728C39.4191 44.4728 42.8544 44.992 45.3405 45.4732C46.0278 45.6063 46.6686 44.972 46.5859 44.3401C46.1469 40.985 45.6068 35.8001 45.6068 30.5698C45.6068 25.5925 46.096 20.5828 46.521 17.1646C46.5596 16.8543 46.4276 16.4873 46.0732 16.1877C45.715 15.8848 45.2747 15.7796 44.9147 15.865C42.5234 16.4321 39.2925 16.9665 35.5983 16.9665ZM50.5435 40.7798C49.8825 40.7798 49.2164 40.8064 48.56 40.852C48.1934 37.8869 47.796 33.7043 47.796 29.5199C47.796 26.2636 48.0367 22.9679 48.3171 20.2368C48.8981 20.2729 49.5059 20.293 50.1391 20.293C53.5118 20.293 56.3904 19.7227 58.3084 19.2062C57.9602 21.8315 57.4939 26.1407 57.4939 30.4209C57.4939 34.7928 57.9803 39.1221 58.3312 41.6796C56.3671 41.275 53.3903 40.7798 50.5435 40.7798ZM20.8784 20.293C21.8545 20.293 22.7886 20.2452 23.6694 20.165C23.8885 22.9553 24.0807 26.2248 24.0807 29.0973C24.0807 32.8778 23.7482 37.5427 23.4607 40.8661C22.7416 40.8119 22.0093 40.7798 21.2828 40.7798C18.375 40.7798 15.3251 41.2966 13.3582 41.706C13.6192 38.9147 14.0215 33.9833 14.0215 30.0622C14.0215 26.3573 13.6626 21.9712 13.403 19.2781C15.1344 19.7809 17.6822 20.293 20.8784 20.293Z" fill="white"/>
<path d="M32.3996 32.901C32.3957 32.8952 32.3923 32.8886 32.3891 32.8812C32.261 32.5753 32.1697 32.2594 32.1023 31.9371C32.0792 31.8266 32.0808 31.7133 32.0859 31.6007L32.0915 31.4699L32.0929 31.4404C32.1146 31.0135 32.1853 30.5945 32.3148 30.1847C32.3887 29.9511 32.484 29.7257 32.5941 29.5056C32.6269 29.44 32.6586 29.3738 32.692 29.3044L32.7402 29.2043L32.7521 29.2265C32.7592 29.2396 32.7652 29.2505 32.7704 29.2617C32.7965 29.3172 32.8224 29.3728 32.8482 29.4284C32.9023 29.5447 32.9564 29.6611 33.0128 29.7764C33.0857 29.9256 33.1755 30.0658 33.2816 30.1961C33.2845 30.1998 33.2876 30.2033 33.291 30.207L33.3125 30.2303C33.5313 29.8868 33.7237 29.5342 33.8936 29.1706C34.0639 28.8063 34.2081 28.4329 34.3308 28.0518C34.4456 27.695 34.5289 27.3307 34.6144 26.9565L34.6314 26.8823L34.6466 26.8936L34.6567 26.9008C34.671 26.911 34.6824 26.9191 34.692 26.9289L34.8251 27.0641C34.9571 27.198 35.0892 27.3319 35.2185 27.4681C35.4464 27.7079 35.6546 27.9628 35.8426 28.2322C36.0394 28.5141 36.2093 28.8098 36.3362 29.1266C36.3392 29.134 36.3428 29.1411 36.3474 29.1504L36.3569 29.1696C36.4395 29.0281 36.5003 28.8865 36.5465 28.7394C36.5783 28.6383 36.6074 28.5365 36.6366 28.4343C36.6496 28.389 36.6625 28.3437 36.6757 28.2983C36.6792 28.2993 36.6822 28.2999 36.6849 28.3005C36.6897 28.3016 36.6933 28.3024 36.6959 28.3044C36.7372 28.3364 36.779 28.3679 36.8207 28.3994C36.9566 28.5019 37.0927 28.6046 37.2137 28.7238C37.4068 28.914 37.5662 29.1256 37.6737 29.3707C37.689 29.4056 37.7029 29.4411 37.718 29.4798C37.7256 29.4992 37.7335 29.5194 37.742 29.5407L38.0804 29.039L38.0895 29.0482C38.0949 29.0536 38.0996 29.0582 38.1035 29.0634L38.1765 29.1609C38.2964 29.3205 38.4163 29.4801 38.5211 29.6495C38.737 29.9986 38.8987 30.3676 38.9794 30.7668C39.0268 31.0015 39.0419 31.2383 39.0295 31.4769C39.0204 31.6531 38.9771 31.8228 38.9224 31.9904C38.9101 32.0282 38.897 32.0659 38.8839 32.1035C38.869 32.1464 38.8541 32.1892 38.8403 32.2324C38.8331 32.2549 38.8227 32.2734 38.8086 32.289C38.4368 33.0747 36.6801 33.8692 35.5018 34.0046C34.3151 34.141 32.5903 33.5012 32.4022 32.9124L32.401 32.9081C32.4004 32.9057 32.4 32.9034 32.3996 32.901Z" fill="white"/>
<path d="M49.9869 32.4885C49.9836 32.4837 49.9808 32.4782 49.9782 32.4721C49.8716 32.2177 49.7957 31.9549 49.7397 31.6869C49.7204 31.595 49.7218 31.5009 49.726 31.4072L49.7281 31.3571C49.7293 31.3294 49.7304 31.3016 49.7318 31.2739C49.7499 30.9189 49.8087 30.5704 49.9164 30.2296C49.9778 30.0354 50.057 29.8479 50.1486 29.6649C50.1759 29.6104 50.2023 29.5553 50.23 29.4976L50.2701 29.4143L50.28 29.4328C50.2859 29.4437 50.2909 29.4528 50.2952 29.462C50.3169 29.5082 50.3384 29.5544 50.3599 29.6007C50.4049 29.6974 50.4499 29.7942 50.4968 29.8901C50.5575 30.0142 50.6321 30.1308 50.7203 30.2392C50.7249 30.2448 50.7298 30.2501 50.7359 30.2566L50.746 30.2676C50.928 29.9819 51.088 29.6887 51.2293 29.3863C51.3709 29.0834 51.4908 28.7729 51.5928 28.4559C51.6884 28.1592 51.7576 27.8562 51.8287 27.5449L51.8428 27.4834L51.8545 27.4921L51.8638 27.4987C51.8758 27.5072 51.8853 27.514 51.8932 27.5222L52.0039 27.6345C52.1137 27.7459 52.2235 27.8572 52.3311 27.9705C52.5206 28.17 52.6937 28.3819 52.8501 28.6059C53.0137 28.8404 53.155 29.0863 53.2606 29.3498C53.263 29.3559 53.266 29.3619 53.2699 29.3696L53.2778 29.3855C53.3465 29.2679 53.397 29.1501 53.4354 29.0277C53.4618 28.9439 53.4859 28.8595 53.5102 28.7747L53.511 28.7718L53.5314 28.7007L53.5429 28.6609C53.5458 28.6617 53.5483 28.6623 53.5505 28.6628C53.553 28.6633 53.5567 28.6644 53.5567 28.6644L53.5581 28.665L53.5597 28.666C53.5941 28.6926 53.6289 28.7189 53.6637 28.7451C53.7766 28.8304 53.8896 28.9157 53.9903 29.0148C54.1509 29.1729 54.2834 29.3489 54.3728 29.5527C54.3855 29.5817 54.3971 29.6112 54.4096 29.6434C54.4159 29.6595 54.4225 29.6764 54.4296 29.6941L54.711 29.2769L54.7186 29.2845C54.7231 29.289 54.727 29.2929 54.7302 29.2972L54.7909 29.3782C54.8906 29.511 54.9903 29.6437 55.0775 29.7846C55.257 30.0749 55.3916 30.3818 55.4586 30.7137C55.4981 30.9089 55.5106 31.1058 55.5003 31.3042C55.4927 31.4507 55.4567 31.5919 55.4112 31.7313C55.401 31.7627 55.3901 31.794 55.3792 31.8253C55.3668 31.861 55.3544 31.8966 55.343 31.9325C55.337 31.9513 55.3284 31.9666 55.3166 31.9796C55.0074 32.633 53.5465 33.2936 52.5666 33.4063C51.5798 33.5197 50.1455 32.9877 49.989 32.498C49.988 32.4949 49.9873 32.4917 49.9869 32.4885Z" fill="white"/>
<path d="M16.9769 32.4721C16.9795 32.4782 16.9824 32.4837 16.9857 32.4885C16.9861 32.4917 16.9868 32.4949 16.9878 32.498C17.1442 32.9877 18.5786 33.5197 19.5654 33.4063C20.5453 33.2936 22.0061 32.633 22.3153 31.9796C22.3271 31.9666 22.3357 31.9513 22.3417 31.9325C22.3532 31.8966 22.3656 31.861 22.378 31.8254C22.3888 31.7941 22.3997 31.7627 22.41 31.7313C22.4555 31.5919 22.4915 31.4507 22.4991 31.3042C22.5094 31.1058 22.4969 30.9089 22.4574 30.7137C22.3903 30.3818 22.2558 30.0749 22.0763 29.7846C21.9891 29.6437 21.8894 29.511 21.7897 29.3782L21.729 29.2972C21.7273 29.295 21.7255 29.2928 21.7235 29.2907L21.7098 29.2769L21.4284 29.6941C21.4213 29.6765 21.4148 29.6599 21.4086 29.6439C21.396 29.6116 21.3843 29.5817 21.3716 29.5527C21.2822 29.3489 21.1497 29.1729 20.9891 29.0148C20.8884 28.9157 20.7754 28.8304 20.6625 28.7452C20.6277 28.7189 20.5928 28.6926 20.5584 28.666C20.5563 28.6643 20.5533 28.6637 20.5493 28.6628C20.5471 28.6623 20.5446 28.6617 20.5417 28.6609C20.5307 28.6986 20.52 28.7362 20.5092 28.7737C20.4849 28.8587 20.4606 28.9437 20.4342 29.0277C20.3958 29.1501 20.3453 29.2679 20.2765 29.3855L20.2687 29.3696C20.2648 29.3619 20.2618 29.3559 20.2593 29.3498C20.1538 29.0863 20.0125 28.8404 19.8488 28.6059C19.6925 28.3819 19.5193 28.17 19.3299 27.9705C19.2223 27.8572 19.1125 27.7459 19.0027 27.6345L18.892 27.5222C18.884 27.514 18.8746 27.5072 18.8626 27.4987C18.8563 27.4943 18.8494 27.4893 18.8416 27.4834L18.8275 27.5449C18.7564 27.8562 18.6871 28.1592 18.5916 28.4559C18.4896 28.7729 18.3697 29.0834 18.2281 29.3863C18.0867 29.6887 17.9268 29.9819 17.7448 30.2676L17.7346 30.2566C17.7286 30.2501 17.7237 30.2448 17.7191 30.2392C17.6309 30.1308 17.5562 30.0142 17.4956 29.8901C17.4487 29.7942 17.4037 29.6974 17.3587 29.6007C17.3372 29.5544 17.3157 29.5082 17.294 29.462C17.2896 29.4528 17.2847 29.4437 17.2788 29.4328L17.2689 29.4143L17.2288 29.4976C17.2011 29.5553 17.1746 29.6104 17.1474 29.6649C17.0558 29.8479 16.9766 30.0354 16.9151 30.2296C16.8075 30.5704 16.7487 30.9189 16.7306 31.2739C16.7292 31.3016 16.7281 31.3293 16.7269 31.357L16.7248 31.4072C16.7206 31.5009 16.7192 31.595 16.7384 31.6869C16.7945 31.9549 16.8704 32.2177 16.9769 32.4721Z" fill="white"/>
</svg>
