<svg width="24" height="24" viewBox="0 0 24 24" fill="none" xmlns="http://www.w3.org/2000/svg">
<path d="M16.9689 2.27347C16.7286 2.2969 16.4825 2.36136 16.2423 2.46097V2.43753C16.2306 2.44046 16.2071 2.45804 16.1954 2.46097C14.3702 3.10257 10.8751 4.71097 7.71105 7.87503C4.52355 11.0625 2.98547 14.6221 2.29699 16.3828V16.4063C1.99231 17.3174 2.2091 18.3047 2.81262 19.0078L2.83606 19.0313V19.0547L5.08605 21.2813L5.1798 21.375C5.8009 21.9961 6.87902 21.9961 7.50012 21.375L10.5704 18.3047C11.1915 17.6836 11.1915 16.5821 10.5704 15.961L9.09387 14.4844C9.35168 13.9483 10.0196 12.6299 11.2032 11.3907C12.378 10.1602 13.7257 9.53323 14.2501 9.30472L15.797 10.8516L15.8673 10.8985C16.2189 11.1328 16.6202 11.2647 17.0392 11.25C17.4318 11.2354 17.839 11.042 18.1407 10.711L18.1642 10.7344L18.2111 10.6641L21.2345 7.66409C21.8556 7.043 21.8556 5.94144 21.2345 5.32034L18.9142 3.00003C18.5861 2.6719 18.1437 2.42581 17.672 2.32034C17.4435 2.27054 17.2091 2.25003 16.9689 2.27347ZM17.0861 3.77347C17.3702 3.75296 17.6544 3.87308 17.8361 4.05472L20.1798 6.37503C20.3087 6.50394 20.3087 6.45706 20.1798 6.58597L17.0392 9.72659C17.0421 9.72366 17.0392 9.7471 16.9689 9.75003C16.9103 9.75296 16.8224 9.70316 16.7345 9.65628H16.6876L14.9298 7.87503L14.5782 7.52347L14.1329 7.68753C14.1329 7.68753 11.8273 8.54886 10.1017 10.3594C8.40539 12.1348 7.47668 14.3203 7.47668 14.3203L7.28918 14.7891L7.64074 15.1641L9.51574 17.0391C9.64465 17.168 9.64465 17.1211 9.51574 17.25L6.44543 20.3203C6.31652 20.4492 6.3634 20.4492 6.23449 20.3203L3.93762 18.0469C3.93176 18.041 3.94348 18.0293 3.93762 18.0235L3.91418 18C3.65344 17.6748 3.57434 17.3291 3.70324 16.9219C3.70617 16.9131 3.70031 16.9073 3.70324 16.8985C4.36828 15.2051 5.83313 11.8858 8.78918 8.92972C11.757 5.96194 15.1232 4.43558 16.7579 3.86722L16.7814 3.84378H16.8048C16.8956 3.80276 16.9923 3.77933 17.0861 3.77347Z" fill="white"/>
</svg>
