<svg width="72" height="60" viewBox="0 0 72 60" fill="none" xmlns="http://www.w3.org/2000/svg">
<path d="M42.5876 10.1128C43.0703 10.1128 43.4616 10.5041 43.4616 10.9868V14.833C43.4616 15.3157 43.0703 15.707 42.5876 15.707C42.1049 15.707 41.7136 15.3157 41.7136 14.833V10.9868C41.7136 10.5041 42.1049 10.1128 42.5876 10.1128Z" fill="white"/>
<path fill-rule="evenodd" clip-rule="evenodd" d="M36.558 10.1175C32.9333 10.2477 30.1748 13.0914 30.1748 16.7562C30.1748 18.8453 31.0712 20.6675 32.5134 21.8725C29.3691 22.296 26.3605 23.3383 23.6343 25.0759C22.4419 24.0869 21.0592 23.575 19.5101 23.575C19.0274 23.575 18.6361 23.9663 18.6361 24.449C18.6361 25.7951 19.1204 27.099 19.9071 28.2368C18.6774 29.6405 17.7304 31.3877 17.2689 33.1906H16.6254C14.6042 33.1906 12.8667 34.9281 12.8667 36.9493C12.8667 38.9898 13.9907 40.9969 15.7775 42.1137L15.7794 42.1148L22.4824 46.2815V51.3728C22.4824 51.8555 22.8737 52.2468 23.3563 52.2468H27.2026C27.5337 52.2468 27.8363 52.0598 27.9843 51.7637L29.2014 49.3296C33.5417 50.4627 38.1717 50.4627 42.512 49.3296L43.7291 51.7637C43.8771 52.0598 44.1798 52.2468 44.5108 52.2468H48.3571C48.8397 52.2468 49.231 51.8555 49.231 51.3728V46.2749C52.697 43.9721 54.8015 40.1859 54.9995 36.0293C55.0001 36.0155 55.0004 36.0016 55.0004 35.9878C55.0004 34.5603 54.7259 33.1925 54.2207 31.9082C54.9998 31.0224 55.6083 30.0166 56.0489 28.9446C56.6635 29.0897 57.3108 29.1693 57.9727 29.1693C58.4554 29.1693 58.8467 28.778 58.8467 28.2953C58.8467 27.8126 58.4554 27.4213 57.9727 27.4213C57.4963 27.4213 57.0313 27.3691 56.5891 27.2746C56.8126 26.349 56.9236 25.3972 56.9236 24.4491C56.9236 23.6735 56.6613 22.9593 56.1387 22.4368C55.6162 21.9143 54.902 21.6519 54.1265 21.6519C53.3509 21.6519 52.6367 21.9143 52.1142 22.4368C51.5917 22.9593 51.3293 23.6735 51.3293 24.4491C51.3293 25.8207 52.2667 27.0142 53.4418 27.8155C53.7371 28.0168 54.0571 28.2009 54.3972 28.3639C54.1256 29.0063 53.7837 29.6157 53.3724 30.176C52.3751 28.488 50.963 26.9869 49.2579 25.7389C46.9101 24.0206 43.9846 22.7614 40.7441 22.1233C41.6274 21.4697 42.34 20.5912 42.8019 19.55C46.3718 19.4369 49.2311 16.5074 49.2311 12.91C49.2311 9.24095 46.2568 6.2666 42.5877 6.2666C39.9161 6.2666 37.6129 7.84358 36.558 10.1175ZM37.8907 11.526C37.7616 11.9648 37.6923 12.4293 37.6923 12.91C37.6923 15.6136 39.8841 17.8054 42.5877 17.8054C45.2914 17.8054 47.4831 15.6136 47.4831 12.91C47.4831 10.2063 45.2914 8.01458 42.5877 8.01458C40.5596 8.01458 38.8195 9.2479 38.0766 11.0055C38.0725 11.2017 38.0037 11.382 37.8907 11.526ZM36.0175 11.9205C35.9693 12.2433 35.9443 12.5737 35.9443 12.91C35.9443 13.4001 35.9974 13.8778 36.0981 14.3377C36.0011 14.4785 35.9443 14.6491 35.9443 14.833V18.6792C35.9443 19.1619 36.3356 19.5532 36.8183 19.5532C37.301 19.5532 37.6923 19.1619 37.6923 18.6792V17.4011C38.5506 18.3362 39.6734 19.0246 40.9421 19.348C40.1015 20.7603 38.5788 21.6516 36.8182 21.6516C34.0316 21.6516 31.9228 19.5428 31.9228 16.7562C31.9228 14.2434 33.6374 12.2819 36.0175 11.9205ZM52.2985 31.8724C52.3203 32.0366 52.3887 32.1958 52.5037 32.3286C52.99 33.4848 53.2496 34.7068 53.2524 35.9671C53.0673 39.7147 51.1041 43.0927 47.9013 45.05C47.6415 45.2087 47.4831 45.4913 47.4831 45.7957V50.4988H45.0509L43.754 47.9049C43.5651 47.5272 43.1331 47.3385 42.7276 47.4568C38.2719 48.7564 33.4415 48.7564 28.9858 47.4568C28.5803 47.3385 28.1483 47.5272 27.9594 47.9049L26.6625 50.4988H24.2303V45.7957C24.2303 45.4936 24.0743 45.213 23.8178 45.0535L16.704 40.6314L16.7029 40.6307C15.4134 39.8243 14.6147 38.3701 14.6147 36.9493C14.6147 35.8935 15.5696 34.9386 16.6254 34.9386H17.9716C18.394 34.9386 18.7559 34.6366 18.8315 34.221C19.1822 32.2921 20.2451 30.3347 21.6666 28.9132C21.9862 28.5936 22.0094 28.083 21.72 27.7357C21.1097 27.0033 20.6948 26.2118 20.504 25.424C21.3911 25.6114 22.1952 26.0623 22.9307 26.7978C23.228 27.0952 23.6951 27.1386 24.0422 26.9011C27.534 24.512 31.5882 23.3998 35.8567 23.3998C40.6905 23.3998 45.0727 24.842 48.2255 27.1495C50.0496 28.4845 51.4457 30.0937 52.2985 31.8724ZM55.1756 24.4491C55.1756 25.2011 55.0945 25.95 54.9336 26.677C54.7546 26.5817 54.5851 26.4794 54.4265 26.3713C53.4862 25.7301 53.0773 25.0006 53.0773 24.4491C53.0773 24.0707 53.1996 23.8234 53.3502 23.6728C53.5008 23.5222 53.7481 23.3999 54.1265 23.3999C54.5048 23.3999 54.7522 23.5222 54.9027 23.6728C55.0533 23.8234 55.1756 24.0707 55.1756 24.4491Z" fill="white"/>
<path d="M35.8566 25.498C33.4548 25.498 31.0685 25.8978 28.8957 26.4904C28.43 26.6174 28.1555 27.0979 28.2825 27.5636C28.4095 28.0292 28.8899 28.3038 29.3556 28.1768C31.4137 27.6155 33.6429 27.246 35.8566 27.246C38.0703 27.246 40.2995 27.6155 42.3576 28.1768C42.8233 28.3038 43.3038 28.0292 43.4308 27.5636C43.5578 27.0979 43.2832 26.6174 42.8175 26.4904C40.6448 25.8978 38.2584 25.498 35.8566 25.498Z" fill="white"/>
<path fill-rule="evenodd" clip-rule="evenodd" d="M22.3946 31.2672C21.3809 31.2672 20.5591 32.089 20.5591 33.1027C20.5591 34.1165 21.3809 34.9383 22.3946 34.9383C23.4084 34.9383 24.2302 34.1165 24.2302 33.1027C24.2302 32.089 23.4084 31.2672 22.3946 31.2672ZM22.3071 33.1027C22.3071 33.0544 22.3463 33.0152 22.3946 33.0152C22.443 33.0152 22.4822 33.0544 22.4822 33.1027C22.4822 33.1511 22.443 33.1903 22.3946 33.1903C22.3463 33.1903 22.3071 33.1511 22.3071 33.1027Z" fill="white"/>
</svg>
