<svg width="24" height="24" viewBox="0 0 24 24" fill="none" xmlns="http://www.w3.org/2000/svg">
<path d="M12 3.75L11.7656 3.96094L3.21094 12.6094L2.69531 13.125L3.21094 13.6641L10.3359 20.7891L10.875 21.3047L11.3906 20.7891L20.0391 12.2344L20.25 12V3.75H12ZM12.6328 5.25H18.75V11.3672L10.875 19.1953L4.80469 13.125L12.6328 5.25ZM16.5 6.75C16.0869 6.75 15.75 7.08691 15.75 7.5C15.75 7.91309 16.0869 8.25 16.5 8.25C16.9131 8.25 17.25 7.91309 17.25 7.5C17.25 7.08691 16.9131 6.75 16.5 6.75Z" fill="white"/>
</svg>
