<svg width="72" height="60" viewBox="0 0 72 60" fill="none" xmlns="http://www.w3.org/2000/svg">
<path d="M40.0587 44.5564C39.6497 44.5539 39.2488 44.4415 38.898 44.2311C38.5473 44.0206 38.2595 43.7198 38.0648 43.3601L32.5816 33.5301C32.5542 33.4768 32.5129 33.432 32.4619 33.4005L22.632 27.9472C22.2422 27.7284 21.9242 27.4014 21.7164 27.0056C21.5086 26.6099 21.4199 26.1625 21.461 25.7174C21.5021 25.2723 21.6713 24.8487 21.9481 24.4978C22.225 24.1469 22.5975 23.8837 23.0208 23.74L47.496 15.565C47.9043 15.4272 48.3431 15.4063 48.7627 15.5045C49.1824 15.6027 49.5662 15.8163 49.871 16.121C50.1757 16.4258 50.3893 16.8096 50.4875 17.2293C50.5858 17.6489 50.5648 18.0877 50.427 18.4961L42.252 42.9712C42.112 43.4011 41.848 43.78 41.4932 44.0603C41.1384 44.3406 40.7087 44.5097 40.2581 44.5464L40.0587 44.5564ZM48.124 17.4493L23.6588 25.6143C23.5979 25.6321 23.5436 25.6677 23.503 25.7165C23.4624 25.7653 23.4373 25.8251 23.4309 25.8883C23.4244 25.9514 23.437 26.0151 23.467 26.071C23.4969 26.127 23.5429 26.1728 23.599 26.2025L33.429 31.6658C33.8062 31.875 34.1171 32.1859 34.3262 32.5631L39.7895 42.393C39.8176 42.4494 39.8623 42.4958 39.9175 42.5261C39.9728 42.5564 40.0359 42.5691 40.0986 42.5625C40.162 42.5591 40.2228 42.5362 40.2728 42.4969C40.3227 42.4577 40.3594 42.404 40.3777 42.3432L48.5428 17.858C48.5629 17.8014 48.5661 17.7401 48.5519 17.6816C48.5378 17.6232 48.5069 17.5701 48.463 17.529C48.4212 17.4862 48.3681 17.456 48.31 17.4419C48.2518 17.4278 48.1908 17.4303 48.134 17.4493H48.124Z" fill="white"/>
<path d="M48.4566 16.1225L32.5317 32.0474L33.9416 33.4573L49.8665 17.5324L48.4566 16.1225Z" fill="white"/>
</svg>
